Coordinates
version=1
nRows=14
nColumns=40
inDegrees=yes

Units are S.I. units (second, meters, Newtons, ...)
If the header above contains a line with 'inDegrees', this indicates whether rotational values are in degrees (yes) or radians (no).

endheader
time	pelvis_tilt	pelvis_list	pelvis_rotation	pelvis_tx	pelvis_ty	pelvis_tz	hip_flexion_r	hip_adduction_r	hip_rotation_r	knee_angle_r	knee_angle_r_beta	ankle_angle_r	subtalar_angle_r	mtp_angle_r	hip_flexion_l	hip_adduction_l	hip_rotation_l	knee_angle_l	knee_angle_l_beta	ankle_angle_l	subtalar_angle_l	mtp_angle_l	lumbar_extension	lumbar_bending	lumbar_rotation	arm_flex_r	arm_add_r	arm_rot_r	elbow_flex_r	pro_sup_r	wrist_flex_r	wrist_dev_r	arm_flex_l	arm_add_l	arm_rot_l	elbow_flex_l	pro_sup_l	wrist_flex_l	wrist_dev_l
      1.29000000	      1.68882649	     -8.82282101	     89.57739612	      0.25173280	      0.99936657	     -0.26809083	     16.40546259	      4.83032704	     -2.05843015	     12.12840497	      0.21168060	      2.91290944	      0.00000000	      0.00000000	     24.41834891	     -1.12024891	      2.13704955	     52.11030453	      0.90949639	     -2.27866906	      0.00000000	      0.00000000	     -1.18481006	      0.79418639	     -1.91792511	      0.00000000	      0.00000000	      0.00000000	      0.00000000	      0.00000000	      0.00000000	      0.00000000	      0.00000000	      0.00000000	      0.00000000	      0.00000000	      0.00000000	      0.00000000	      0.00000000
      1.30000000	      1.29298387	     -8.78923672	     89.53502903	      0.25195875	      1.00152490	     -0.28649922	     14.48236509	      4.47023301	     -1.87825438	     10.82183479	      0.18887665	      3.28317690	     -0.00000000	      0.00000000	     25.59030238	     -0.70524253	      2.27230589	     49.95758208	      0.87192429	     -1.14541364	      0.00000000	      0.00000000	     -1.05351652	      0.27026450	     -1.83788077	      0.00000000	     -0.00000000	      0.00000000	      0.00000000	      0.00000000	      0.00000000	     -0.00000000	     -0.00000000	      0.00000000	     -0.00000000	      0.00000000	      0.00000000	      0.00000000	     -0.00000000
      1.31000000	      0.95419058	     -8.84577375	     89.47777305	      0.25219842	      1.00293328	     -0.30485426	     12.72267969	      4.16479149	     -1.66072727	      9.62616312	      0.16800824	      3.70711147	      0.00000000	     -0.00000000	     26.77012010	     -0.38643098	      2.37506948	     47.59178612	      0.83063336	     -0.17929959	      0.00000000	      0.00000000	     -0.82596092	     -0.17950556	     -1.74810241	      0.00000000	      0.00000000	     -0.00000000	      0.00000000	      0.00000000	     -0.00000000	      0.00000000	     -0.00000000	     -0.00000000	      0.00000000	      0.00000000	      0.00000000	      0.00000000	     -0.00000000
      1.32000000	      0.69041969	     -8.88629032	     89.39793804	      0.25247039	      1.00373267	     -0.32325218	     10.98198049	      3.93809923	     -1.42140566	      8.49283781	      0.14822798	      4.18353234	      0.00000000	     -0.00000000	     27.82120251	     -0.19046414	      2.43950507	     44.99840705	      0.78537036	      0.58346318	      0.00000000	     -0.00000000	     -0.62283697	     -0.54198928	     -1.62738525	      0.00000000	      0.00000000	     -0.00000000	      0.00000000	      0.00000000	     -0.00000000	     -0.00000000	     -0.00000000	     -0.00000000	     -0.00000000	      0.00000000	      0.00000000	     -0.00000000	     -0.00000000
      1.33000000	      0.49868897	     -8.94927875	     89.28446258	      0.25277862	      1.00385935	     -0.34164856	      9.31883971	      3.78526245	     -1.14881325	      7.45851540	      0.13017565	      4.72273910	      0.00000000	      0.00000000	     28.80877776	     -0.11859687	      2.45165698	     42.22425101	      0.73695220	      1.14552983	      0.00000000	      0.00000000	     -0.40238624	     -0.80951462	     -1.45531848	      0.00000000	      0.00000000	      0.00000000	      0.00000000	      0.00000000	      0.00000000	      0.00000000	      0.00000000	      0.00000000	      0.00000000	      0.00000000	      0.00000000	      0.00000000	      0.00000000
      1.34000000	      0.41253403	     -9.12941270	     89.14914239	      0.25313633	      1.00316850	     -0.35990580	      7.85103262	      3.74595291	     -0.87121061	      6.55072630	      0.11433174	      5.33901459	      0.00000000	      0.00000000	     29.86529988	     -0.19178066	      2.45658369	     39.31817037	      0.68623153	      1.53030831	      0.00000000	      0.00000000	     -0.08185758	     -0.95273099	     -1.25116711	      0.00000000	      0.00000000	      0.00000000	      0.00000000	      0.00000000	      0.00000000	      0.00000000	      0.00000000	      0.00000000	      0.00000000	      0.00000000	      0.00000000	      0.00000000	      0.00000000
      1.35000000	      0.32174438	     -8.88348666	     88.92323088	      0.25358746	      1.00248938	     -0.37860254	      5.86933639	      3.69768681	     -0.51175230	      5.57924117	      0.09737613	      5.91876266	      0.00000000	      0.00000000	     30.27228195	     -0.34799552	      2.26372699	     36.11799589	      0.63037795	      1.67928556	      0.00000000	      0.00000000	     -0.21768492	     -1.10555695	     -0.91522125	      0.00000000	      0.00000000	      0.00000000	      0.00000000	      0.00000000	      0.00000000	      0.00000000	      0.00000000	      0.00000000	      0.00000000	      0.00000000	      0.00000000	      0.00000000	      0.00000000
      1.36000000	      0.32431685	     -8.94937063	     88.67242033	      0.25406665	      1.00073155	     -0.39701518	      4.33309692	      3.74630415	     -0.11210594	      4.81222374	      0.08398915	      6.62798942	      0.00000000	      0.00000000	     31.01188464	     -0.62605753	      2.07414982	     32.88754842	      0.57399600	      1.70641003	      0.00000000	      0.00000000	     -0.02821154	     -1.14048580	     -0.60137400	      0.00000000	      0.00000000	      0.00000000	      0.00000000	      0.00000000	      0.00000000	      0.00000000	      0.00000000	      0.00000000	      0.00000000	      0.00000000	      0.00000000	      0.00000000	      0.00000000
      1.37000000	      0.34237094	     -8.78504566	     88.34307424	      0.25456148	      0.99874276	     -0.41561307	      2.54229850	      3.78936701	      0.27618722	      4.04844753	      0.07065874	      7.31434078	      0.00000000	      0.00000000	     31.38701205	     -0.98315920	      1.70279641	     29.49088892	      0.51471311	      1.60812030	      0.00000000	      0.00000000	     -0.12602439	     -1.14658489	     -0.14284235	      0.00000000	      0.00000000	      0.00000000	      0.00000000	      0.00000000	      0.00000000	      0.00000000	      0.00000000	      0.00000000	      0.00000000	      0.00000000	      0.00000000	      0.00000000	      0.00000000
      1.38000000	      0.41791106	     -8.72172842	     88.00100970	      0.25504355	      0.99605851	     -0.43414743	      0.91189745	      3.87968021	      0.68715372	      3.39691613	      0.05928737	      8.04692363	      0.00000000	      0.00000000	     31.82900730	     -1.39925651	      1.34742060	     26.04821445	      0.45462711	      1.48504064	      0.00000000	      0.00000000	     -0.11700059	     -1.08855219	      0.33273775	      0.00000000	      0.00000000	      0.00000000	      0.00000000	      0.00000000	      0.00000000	      0.00000000	      0.00000000	      0.00000000	      0.00000000	      0.00000000	      0.00000000	      0.00000000	      0.00000000
      1.39000000	      0.53732552	     -8.80865322	     87.63933292	      0.25548182	      0.99267240	     -0.45259125	     -0.48812461	      4.00109834	      1.12174290	      2.88715690	      0.05039039	      8.88707322	      0.00000000	      0.00000000	     32.38811727	     -1.86605170	      0.98642598	     22.56918367	      0.39390656	      1.30526614	      0.00000000	      0.00000000	      0.04644555	     -0.96714882	      0.80313819	      0.00000000	      0.00000000	      0.00000000	      0.00000000	      0.00000000	      0.00000000	      0.00000000	      0.00000000	      0.00000000	      0.00000000	      0.00000000	      0.00000000	      0.00000000	      0.00000000
      1.40000000	      0.62263363	     -8.60775673	     87.22227443	      0.25589920	      0.98928163	     -0.47131276	     -2.21739411	      4.04638696	      1.54209852	      2.36394251	      0.04125858	      9.66913757	      0.00000000	      0.00000000	     32.53373593	     -2.33882291	      0.33645539	     19.01873911	      0.33193962	      1.11545973	      0.00000000	      0.00000000	     -0.12382061	     -0.88627806	      1.34231039	      0.00000000	      0.00000000	      0.00000000	      0.00000000	      0.00000000	      0.00000000	      0.00000000	      0.00000000	      0.00000000	      0.00000000	      0.00000000	      0.00000000	      0.00000000	      0.00000000
      1.41000000	      0.76313458	     -8.58822775	     86.80583728	      0.25621112	      0.98527151	     -0.48996663	     -3.67897359	      4.13177047	      1.95790249	      1.99379304	      0.03479825	     10.47042445	     -0.00000000	     -0.00000000	     32.84597418	     -2.81797479	     -0.11880225	     15.54315999	      0.27127932	      1.06289728	     -0.00000000	      0.00000000	     -0.10478338	     -0.74080790	      1.87885803	      0.00000000	     -0.00000000	      0.00000000	      0.00000000	      0.00000000	      0.00000000	     -0.00000000	     -0.00000000	      0.00000000	      0.00000000	      0.00000000	      0.00000000	      0.00000000	      0.00000000
      1.42000000	      0.91016525	     -8.58314697	     86.38934347	      0.25641624	      0.98095528	     -0.50871807	     -5.08180076	      4.18897402	      2.36903768	      1.72320542	      0.03007561	     11.31158979	      0.00000000	      0.00000000	     33.11601496	     -3.28706690	     -0.59373007	     12.14807586	      0.21202392	      1.05986879	      0.00000000	      0.00000000	     -0.07602117	     -0.58004859	      2.42784097	      0.00000000	      0.00000000	      0.00000000	      0.00000000	      0.00000000	      0.00000000	      0.00000000	      0.00000000	      0.00000000	      0.00000000	      0.00000000	      0.00000000	      0.00000000	      0.00000000
